<svg width="679" height="99" viewBox="0 0 679 99" fill="none" xmlns="http://www.w3.org/2000/svg">
<g filter="url(#filter0_d_1_2)">
<path d="M82.44 68.92C82.504 70.2 82.664 71.448 82.92 72.664C83.24 73.88 83.624 74.776 84.072 75.352C83.496 75.928 82.6 76.6 81.384 77.368C80.232 78.136 78.888 78.744 77.352 79.192C75.88 79.704 74.312 79.928 72.648 79.864C70.152 79.736 68.136 78.68 66.6 76.696C65.128 74.712 64.36 72.248 64.296 69.304C64.296 68.728 64.296 67.672 64.296 66.136C64.296 64.536 64.296 62.84 64.296 61.048C64.296 59.256 64.296 57.784 64.296 56.632C64.296 55.544 64.008 54.488 63.432 53.464C62.92 52.44 62.312 51.832 61.608 51.64C60.648 51.32 59.848 51.896 59.208 53.368C59.08 53.688 58.664 54.488 57.96 55.768C57.256 56.984 56.456 58.424 55.56 60.088C54.728 61.752 53.928 63.416 53.16 65.08C52.456 66.744 51.976 68.184 51.72 69.4C51.464 70.552 51.624 71.256 52.2 71.512C51.944 72.152 51.464 73.08 50.76 74.296C50.12 75.512 49.032 76.568 47.496 77.464C46.024 78.296 43.912 78.616 41.16 78.424C39.688 78.296 37.8 77.4 35.496 75.736C33.192 74.072 30.984 71.032 28.872 66.616C26.888 62.392 25.256 59.544 23.976 58.072C22.76 56.536 21.864 55.832 21.288 55.96C20.776 56.024 20.36 56.376 20.04 57.016C19.784 57.656 19.528 58.552 19.272 59.704C19.144 60.28 19.08 61.24 19.08 62.584C19.08 63.928 19.144 65.432 19.272 67.096C19.4 68.76 19.624 70.328 19.944 71.8C20.328 73.272 20.808 74.392 21.384 75.16C20.872 75.48 19.944 76.024 18.6 76.792C17.32 77.56 15.848 78.264 14.184 78.904C12.584 79.48 11.016 79.768 9.48 79.768C7.176 79.704 5.256 79.096 3.72 77.944C2.184 76.728 1.256 74.36 0.936 70.84C0.872 70.264 0.84 68.632 0.84 65.944C0.84 63.256 0.84 59.864 0.84 55.768C0.84 51.672 0.84 47.288 0.84 42.616C0.84 37.88 0.84 33.208 0.84 28.6C0.84 23.992 0.84 19.768 0.84 15.928C0.904 12.088 0.936 9.016 0.936 6.712C0.936 4.408 0.936 3.256 0.936 3.256C1.64 3.128 2.824 3.096 4.488 3.16C6.152 3.224 7.976 3.48 9.96 3.92799C11.944 4.376 13.768 5.112 15.432 6.13599C17.096 7.096 18.248 8.472 18.888 10.264C18.888 10.264 19.176 10.872 19.752 12.088C20.392 13.24 21.224 14.776 22.248 16.696C23.272 18.552 24.36 20.568 25.512 22.744C26.728 24.92 27.88 27.064 28.968 29.176C30.12 31.288 31.112 33.144 31.944 34.744C32.84 36.344 33.448 37.464 33.768 38.104C34.856 39.96 35.88 41.24 36.84 41.944C37.864 42.648 38.952 43.032 40.104 43.096C42.472 43.096 44.744 41.272 46.92 37.624C47.24 37.048 47.88 35.832 48.84 33.976C49.8 32.056 50.92 29.784 52.2 27.16C53.48 24.536 54.792 21.848 56.136 19.096C57.544 16.344 58.824 13.784 59.976 11.416C61.128 8.984 62.056 7.032 62.76 5.56C63.528 4.024 63.912 3.256 63.912 3.256C64.36 3.192 65 3.16 65.832 3.16C66.728 3.096 67.688 3.128 68.712 3.256C70.504 3.384 72.392 3.73599 74.376 4.31199C76.424 4.88799 78.184 5.78399 79.656 6.99999C81.192 8.216 82.056 9.848 82.248 11.896C82.376 12.984 82.472 14.776 82.536 17.272C82.6 19.704 82.632 22.616 82.632 26.008C82.632 29.336 82.632 32.888 82.632 36.664C82.632 40.44 82.6 44.152 82.536 47.8C82.536 51.448 82.504 54.808 82.44 57.88C82.44 60.952 82.44 63.48 82.44 65.464C82.44 67.384 82.44 68.536 82.44 68.92Z" fill="#DF6523"/>
<path d="M102.53 21.88C100.354 21.944 98.4015 21.336 96.6735 20.056C95.0095 18.776 93.7295 17.208 92.8335 15.352C92.0015 13.432 91.6815 11.608 91.8735 9.88C92.1935 7.256 93.3775 5.4 95.4255 4.31199C97.4735 3.224 99.6175 2.648 101.858 2.58399C105.058 2.456 107.554 3.288 109.346 5.08C111.138 6.872 112.034 8.92 112.034 11.224C112.034 12.76 111.682 14.328 110.978 15.928C110.338 17.528 109.314 18.904 107.906 20.056C106.498 21.144 104.706 21.752 102.53 21.88ZM112.706 69.304C112.77 70.456 113.122 71.448 113.762 72.28C114.466 73.048 115.298 73.784 116.258 74.488C115.81 75.064 115.234 75.672 114.53 76.312C113.826 76.952 112.77 77.56 111.362 78.136C110.018 78.648 108.066 79.064 105.506 79.384C104.674 79.448 103.618 79.352 102.338 79.096C101.058 78.904 99.7775 78.296 98.4975 77.272C97.2815 76.184 96.2895 74.488 95.5215 72.184C94.7535 69.816 94.4335 66.584 94.5615 62.488C94.6255 61.784 94.6255 60.408 94.5615 58.36C94.5615 56.312 94.5295 53.88 94.4655 51.064C94.4655 48.248 94.4335 45.336 94.3695 42.328C94.3695 39.32 94.3375 36.536 94.2735 33.976C94.2735 31.352 94.2415 29.24 94.1775 27.64C94.1775 25.976 94.1775 25.144 94.1775 25.144C94.7535 25.08 95.7135 25.016 97.0575 24.952C98.4655 24.824 100.002 24.824 101.666 24.952C103.33 25.08 104.93 25.4 106.466 25.912C108.066 26.36 109.41 27.096 110.498 28.12C111.65 29.144 112.322 30.52 112.514 32.248C112.834 34.68 112.962 37.944 112.898 42.04C112.834 46.072 112.738 50.488 112.609 55.288C112.482 60.024 112.514 64.696 112.706 69.304Z" fill="#AB2D17"/>
<path d="M176.158 23.32C176.286 26.264 176.318 29.112 176.254 31.864C176.254 34.552 176.254 36.568 176.254 37.912C176.254 38.616 176.254 40.28 176.254 42.904C176.318 45.528 176.35 48.696 176.35 52.408C176.414 56.12 176.414 59.96 176.35 63.928C176.286 67.896 176.126 71.576 175.87 74.968C175.614 78.68 174.814 81.944 173.47 84.76C172.19 87.576 170.302 89.656 167.806 91C165.31 92.344 162.11 92.728 158.206 92.152C155.262 91.704 153.022 90.808 151.486 89.464C150.014 88.12 149.054 86.552 148.606 84.76C148.222 83.032 148.222 81.24 148.606 79.384C149.054 77.592 149.694 75.992 150.526 74.584C151.102 75.288 151.87 76.056 152.83 76.888C153.854 77.656 154.942 78.264 156.094 78.712C157.31 79.096 158.462 79.16 159.55 78.904C160.254 78.712 160.798 78.36 161.182 77.848C161.566 77.272 161.694 76.6 161.566 75.832C161.438 75.064 160.51 74.2 158.782 73.24C157.118 72.216 154.942 71.768 152.254 71.896C151.23 71.96 150.43 72.024 149.854 72.088C149.278 72.152 148.606 72.184 147.838 72.184C143.422 72.184 139.358 71.288 135.646 69.496C131.934 67.704 128.99 64.952 126.814 61.24C124.638 57.528 123.678 52.792 123.934 47.032C124.126 43.32 125.022 39.992 126.622 37.048C128.222 34.04 130.27 31.512 132.766 29.464C135.326 27.352 138.014 25.784 140.83 24.76C143.71 23.672 146.494 23.224 149.182 23.416C149.502 23.416 150.142 23.512 151.102 23.704C152.062 23.896 153.022 24.088 153.982 24.28C154.942 24.408 155.582 24.504 155.902 24.568C158.142 24.952 160.638 25.016 163.39 24.76C166.206 24.44 168.606 24.088 170.59 23.704C171.87 23.512 173.118 23.416 174.334 23.416C175.55 23.352 176.158 23.32 176.158 23.32ZM147.646 40.12C145.086 40.376 143.166 41.336 141.886 43C140.67 44.664 140.35 46.744 140.926 49.24C141.182 50.392 141.79 51.544 142.75 52.696C143.774 53.784 144.99 54.648 146.398 55.288C147.806 55.928 149.214 56.184 150.622 56.056C152.03 55.928 153.278 55.704 154.366 55.384C155.454 55 156.318 54.232 156.958 53.08C157.598 51.928 157.918 50.104 157.918 47.608C157.918 45.112 157.406 43.32 156.382 42.232C155.422 41.08 154.142 40.408 152.542 40.216C151.006 39.96 149.374 39.928 147.646 40.12Z" fill="#1788B1"/>
<path d="M236.057 66.808C236.121 67.96 236.313 69.176 236.633 70.456C237.017 71.672 237.913 72.568 239.321 73.144C238.489 74.232 237.017 75.448 234.905 76.792C232.793 78.072 230.521 78.904 228.089 79.288C225.849 79.608 223.961 79.352 222.425 78.52C220.953 77.624 219.833 76.344 219.065 74.68C218.361 73.016 217.977 71.224 217.913 69.304C217.913 68.792 217.945 67.736 218.009 66.136C218.073 64.472 218.105 62.584 218.105 60.472C218.105 58.36 218.073 56.344 218.009 54.424C218.009 52.504 217.913 51 217.721 49.912C217.337 47.8 216.569 46.616 215.417 46.36C214.329 46.04 213.081 46.296 211.673 47.128C209.433 48.408 207.577 50.68 206.105 53.944C204.697 57.144 203.961 61.24 203.897 66.232C203.833 68.216 204.089 69.656 204.665 70.552C205.241 71.384 205.529 71.8 205.529 71.8C205.529 71.8 205.209 72.344 204.569 73.432C203.929 74.52 202.777 75.704 201.113 76.984C199.449 78.2 197.017 79.064 193.817 79.576C192.025 79.832 190.553 79.512 189.401 78.616C188.249 77.656 187.417 76.312 186.905 74.584C186.393 72.856 186.105 71.032 186.041 69.112L185.753 13.336C185.689 10.712 185.401 8.408 184.889 6.424C184.377 4.376 184.121 3.352 184.121 3.352C185.721 3.16 187.577 3.096 189.689 3.16C191.865 3.224 193.977 3.544 196.025 4.12C198.137 4.632 199.929 5.528 201.401 6.808C202.873 8.088 203.737 9.816 203.993 11.992C204.057 12.44 204.121 13.304 204.185 14.584C204.313 15.8 204.377 17.048 204.377 18.328C204.313 20.12 204.569 21.624 205.145 22.84C205.721 24.056 206.489 24.984 207.449 25.624C208.537 26.264 209.913 26.488 211.577 26.296C213.241 26.04 214.713 25.688 215.993 25.24C217.273 24.728 218.329 24.344 219.161 24.088C220.057 23.832 220.985 23.64 221.945 23.512C223.033 23.384 224.313 23.448 225.785 23.704C227.257 23.896 228.697 24.376 230.105 25.144C231.577 25.912 232.825 27 233.849 28.408C234.937 29.816 235.609 31.608 235.865 33.784C236.313 37.496 236.409 42.04 236.153 47.416C235.961 52.728 235.929 59.192 236.057 66.808Z" fill="#51AD35"/>
<path d="M283.984 25.72C284.624 26.36 285.104 27.544 285.424 29.272C285.808 30.936 285.904 32.792 285.712 34.84C285.584 36.824 285.104 38.648 284.272 40.312C283.504 41.912 282.32 43 280.72 43.576C278.224 44.472 276.4 46.072 275.248 48.376C274.096 50.68 273.424 53.592 273.232 57.112V65.272C273.36 66.296 273.776 67.128 274.48 67.768C275.248 68.408 275.984 68.856 276.688 69.112C277.456 69.368 277.84 69.496 277.84 69.496C277.84 69.496 277.712 69.944 277.456 70.84C277.264 71.736 276.88 72.792 276.304 74.008C275.728 75.224 274.896 76.408 273.808 77.56C272.72 78.648 271.312 79.416 269.584 79.864C268.688 80.056 267.472 80.088 265.936 79.96C264.464 79.896 262.96 79.608 261.424 79.096C259.888 78.584 258.608 77.88 257.584 76.984C257.008 76.472 256.528 75.928 256.144 75.352C255.76 74.776 255.472 73.912 255.28 72.76C255.152 71.608 255.088 69.976 255.088 67.864V57.592C255.024 53.88 254.224 50.808 252.688 48.376C251.152 45.88 249.136 43.736 246.64 41.944C245.488 41.112 244.656 39.768 244.144 37.912C243.696 35.992 243.408 33.976 243.28 31.864C243.152 29.752 243.12 27.96 243.184 26.488C243.504 26.552 244.368 26.68 245.776 26.872C247.184 27.064 248.4 27.16 249.424 27.16C251.472 27.096 252.88 26.296 253.648 24.76C254.416 23.224 254.8 21.304 254.8 19L254.704 10.456C255.28 10.392 256.24 10.328 257.584 10.264C258.992 10.136 260.528 10.136 262.192 10.264C263.856 10.392 265.456 10.712 266.992 11.224C268.592 11.672 269.936 12.408 271.024 13.432C272.176 14.456 272.848 15.832 273.04 17.56C273.04 17.752 273.04 18.008 273.04 18.328C273.104 18.584 273.136 18.904 273.136 19.288H273.232C273.232 20.12 273.328 21.112 273.52 22.264C273.776 23.416 274.128 24.376 274.576 25.144C275.024 25.784 275.728 26.264 276.688 26.584C277.648 26.84 278.576 27 279.472 27.064C280.432 27.064 281.136 27 281.584 26.872C282.288 26.68 282.8 26.52 283.12 26.392C283.44 26.2 283.728 25.976 283.984 25.72Z" fill="#EDED1D"/>
<path d="M327.416 23.896C331.832 24.472 335.032 25.752 337.016 27.736C339.064 29.72 340.216 32.056 340.472 34.744C340.792 37.432 340.504 40.184 339.608 43C339.096 44.6 338.328 46.648 337.304 49.144C336.344 51.576 335.32 54.072 334.232 56.632C333.208 59.192 332.248 61.496 331.352 63.544C330.456 65.528 329.848 66.936 329.528 67.768C328.504 70.136 327.288 72.664 325.88 75.352C324.472 77.976 322.904 80.44 321.176 82.744C319.512 85.048 317.752 86.936 315.896 88.408C314.104 89.88 312.344 90.616 310.616 90.616C308.312 90.616 306.424 90.04 304.952 88.888C303.544 87.736 302.488 86.296 301.784 84.568C301.08 82.904 300.632 81.272 300.44 79.672C302.104 80.12 303.64 80.088 305.048 79.576C306.456 79.128 307.672 78.456 308.696 77.56C309.656 76.664 310.232 75.64 310.424 74.488C310.68 73.336 310.744 72.312 310.616 71.416C310.296 67.832 309.304 63.96 307.64 59.8L293.528 24.856C294.488 24.728 295.736 24.568 297.272 24.376C298.872 24.12 300.536 24.088 302.264 24.28C304.056 24.408 305.72 24.888 307.256 25.72C308.856 26.488 310.168 27.8 311.192 29.656C311.576 30.296 312.024 31.288 312.536 32.632C313.112 33.912 313.688 35.288 314.264 36.76C314.904 38.168 315.416 39.384 315.8 40.408C316.504 41.944 317.24 43.192 318.008 44.152C318.84 45.048 319.672 45.528 320.504 45.592C321.208 45.656 321.912 45.4 322.616 44.824C323.32 44.184 323.896 43.384 324.344 42.424C324.728 41.528 325.176 40.184 325.688 38.392C326.2 36.6 326.616 35.096 326.936 33.88C327.512 31.64 327.8 29.72 327.8 28.12C327.864 26.52 327.736 25.112 327.416 23.896Z" fill="#B721D5"/>
<path d="M417.529 2.10399C421.305 2.10399 424.921 2.776 428.377 4.12C431.897 5.4 434.841 7.128 437.209 9.304C439.641 11.48 441.081 13.816 441.529 16.312C441.849 17.976 441.625 19.832 440.857 21.88C440.089 23.864 438.873 25.624 437.209 27.16C435.545 28.632 433.529 29.432 431.161 29.56C430.329 29.56 429.273 29.464 427.993 29.272C426.713 29.08 425.465 28.696 424.249 28.12C423.097 27.544 422.169 26.712 421.465 25.624C422.425 25.112 423.065 24.568 423.385 23.992C423.705 23.416 423.801 22.84 423.673 22.264C423.417 20.984 422.649 19.928 421.369 19.096C420.153 18.264 418.649 17.752 416.857 17.56C415.833 17.432 414.649 17.464 413.305 17.656C411.961 17.784 410.713 18.232 409.561 19C408.473 19.704 407.705 20.888 407.257 22.552C407.001 23.512 407.033 24.568 407.353 25.72C407.737 26.808 408.633 27.864 410.041 28.888C411.449 29.848 413.593 30.68 416.473 31.384C420.889 32.408 424.985 33.528 428.761 34.744C432.601 35.96 435.961 37.464 438.841 39.256C441.721 41.048 443.929 43.288 445.465 45.976C447.065 48.6 447.801 51.896 447.673 55.864C447.609 58.488 446.905 61.24 445.561 64.12C444.217 67 442.265 69.688 439.705 72.184C437.145 74.616 434.009 76.6 430.297 78.136C426.585 79.672 422.361 80.44 417.625 80.44C414.617 80.44 411.513 80.184 408.313 79.672C405.113 79.16 402.073 78.36 399.193 77.272C396.377 76.184 393.881 74.744 391.705 72.952C389.785 71.288 388.409 69.208 387.577 66.712C386.809 64.216 386.649 61.72 387.097 59.224C387.545 56.664 388.665 54.488 390.457 52.696C392.313 50.904 394.873 49.912 398.137 49.72C397.497 51.64 397.849 53.528 399.193 55.384C400.601 57.176 402.681 58.712 405.433 59.992C408.185 61.208 411.193 61.944 414.457 62.2C417.849 62.456 420.793 62.328 423.289 61.816C425.849 61.304 427.257 60.248 427.513 58.648C427.833 56.728 427.449 55.192 426.361 54.04C425.273 52.888 423.769 52.024 421.849 51.448C419.929 50.808 417.849 50.296 415.609 49.912C413.369 49.464 411.289 49.016 409.369 48.568C406.809 47.864 404.217 46.968 401.593 45.88C399.033 44.728 396.665 43.288 394.489 41.56C392.377 39.832 390.649 37.72 389.305 35.224C387.961 32.728 387.257 29.816 387.193 26.488C387.129 22.584 387.929 19.128 389.593 16.12C391.257 13.048 393.529 10.488 396.409 8.44C399.289 6.328 402.553 4.76 406.201 3.736C409.913 2.64799 413.689 2.10399 417.529 2.10399ZM493.234 25.72C493.874 26.36 494.354 27.544 494.674 29.272C495.058 30.936 495.154 32.792 494.962 34.84C494.834 36.824 494.354 38.648 493.522 40.312C492.754 41.912 491.57 43 489.97 43.576C487.474 44.472 485.65 46.072 484.498 48.376C483.346 50.68 482.674 53.592 482.482 57.112V65.272C482.61 66.296 483.026 67.128 483.73 67.768C484.498 68.408 485.234 68.856 485.938 69.112C486.706 69.368 487.09 69.496 487.09 69.496C487.09 69.496 486.962 69.944 486.706 70.84C486.514 71.736 486.13 72.792 485.554 74.008C484.978 75.224 484.146 76.408 483.058 77.56C481.97 78.648 480.562 79.416 478.834 79.864C477.938 80.056 476.722 80.088 475.186 79.96C473.714 79.896 472.21 79.608 470.674 79.096C469.138 78.584 467.858 77.88 466.834 76.984C466.258 76.472 465.778 75.928 465.394 75.352C465.01 74.776 464.722 73.912 464.53 72.76C464.402 71.608 464.338 69.976 464.338 67.864V57.592C464.274 53.88 463.474 50.808 461.938 48.376C460.402 45.88 458.386 43.736 455.89 41.944C454.738 41.112 453.906 39.768 453.394 37.912C452.946 35.992 452.658 33.976 452.53 31.864C452.402 29.752 452.37 27.96 452.434 26.488C452.754 26.552 453.618 26.68 455.026 26.872C456.434 27.064 457.65 27.16 458.674 27.16C460.722 27.096 462.13 26.296 462.898 24.76C463.666 23.224 464.05 21.304 464.05 19L463.954 10.456C464.53 10.392 465.49 10.328 466.834 10.264C468.242 10.136 469.778 10.136 471.442 10.264C473.106 10.392 474.706 10.712 476.242 11.224C477.842 11.672 479.186 12.408 480.274 13.432C481.426 14.456 482.098 15.832 482.29 17.56C482.29 17.752 482.29 18.008 482.29 18.328C482.354 18.584 482.386 18.904 482.386 19.288H482.482C482.482 20.12 482.578 21.112 482.77 22.264C483.026 23.416 483.378 24.376 483.826 25.144C484.274 25.784 484.978 26.264 485.938 26.584C486.898 26.84 487.826 27 488.722 27.064C489.682 27.064 490.386 27 490.834 26.872C491.538 26.68 492.05 26.52 492.37 26.392C492.69 26.2 492.978 25.976 493.234 25.72ZM548.255 54.904C549.855 55.992 550.879 57.56 551.327 59.608C551.839 61.592 551.775 63.768 551.135 66.136C550.559 68.504 549.375 70.776 547.583 72.952C545.791 75.064 543.359 76.824 540.287 78.232C537.279 79.64 533.631 80.376 529.343 80.44C525.759 80.504 522.239 80.056 518.783 79.096C515.391 78.136 512.287 76.664 509.471 74.68C506.719 72.696 504.479 70.136 502.751 67C501.023 63.864 500.063 60.12 499.871 55.768C499.807 54.872 499.807 53.944 499.871 52.984C499.935 52.024 499.999 51.032 500.063 50.008C500.063 49.752 500.063 49.496 500.063 49.24C500.127 48.984 500.191 48.728 500.255 48.472C500.895 44.632 502.207 41.112 504.191 37.912C506.239 34.712 508.735 31.992 511.679 29.752C514.623 27.512 517.759 25.88 521.087 24.856C524.479 23.768 527.807 23.384 531.071 23.704C536.127 24.216 540.031 25.56 542.783 27.736C545.599 29.912 547.423 32.6 548.255 35.8C549.151 38.936 549.183 42.328 548.351 45.976C547.903 47.768 546.879 49.56 545.279 51.352C543.743 53.08 541.823 54.648 539.519 56.056C537.215 57.4 534.751 58.456 532.127 59.224C529.567 59.928 527.071 60.216 524.639 60.088C523.423 60.024 522.783 60.408 522.719 61.24C522.655 62.008 523.007 62.872 523.775 63.832C524.543 64.728 525.567 65.336 526.847 65.656C529.855 66.296 532.671 66.328 535.295 65.752C537.983 65.112 540.031 64.248 541.439 63.16C542.591 62.264 543.807 61.08 545.087 59.608C546.367 58.072 547.423 56.504 548.255 54.904ZM527.231 45.208C528.703 45.08 529.983 44.632 531.071 43.864C532.223 43.032 532.799 42.168 532.799 41.272C532.863 39.992 532.543 38.968 531.839 38.2C531.199 37.368 530.079 36.984 528.479 37.048C526.687 37.112 524.959 37.368 523.295 37.816C521.631 38.264 520.639 39.192 520.319 40.6C520.127 41.56 520.415 42.392 521.183 43.096C521.951 43.8 522.911 44.344 524.063 44.728C525.215 45.048 526.271 45.208 527.231 45.208ZM585.515 23.512C591.211 23.064 596.011 24.024 599.915 26.392C603.819 28.696 606.795 31.928 608.843 36.088C610.891 40.184 611.947 44.728 612.01 49.72C612.139 54.328 611.467 58.424 609.995 62.008C608.523 65.528 606.507 68.536 603.947 71.032C601.387 73.464 598.507 75.32 595.307 76.6C592.171 77.88 588.939 78.52 585.611 78.52C584.907 78.52 583.979 78.616 582.827 78.808C581.739 78.936 580.843 79.288 580.139 79.864C579.691 80.312 579.371 80.792 579.179 81.304C579.051 81.816 579.019 82.424 579.083 83.128C579.211 84.28 579.467 85.08 579.851 85.528C580.299 86.04 580.683 86.584 581.003 87.16C580.299 87.928 579.307 88.76 578.027 89.656C576.747 90.552 575.179 91.256 573.323 91.768C571.531 92.28 569.387 92.344 566.891 91.96C565.355 91.704 564.011 90.712 562.859 88.984C561.707 87.256 561.099 84.92 561.035 81.976L560.747 37.336C560.747 33.752 560.523 30.84 560.075 28.6C559.627 26.296 559.403 25.144 559.403 25.144C560.235 24.888 561.547 24.664 563.339 24.472C565.195 24.28 567.115 24.408 569.099 24.856C569.867 25.048 570.827 25.272 571.979 25.528C573.195 25.72 574.507 25.72 575.915 25.528C577.771 25.336 579.627 24.984 581.483 24.472C583.339 23.896 584.683 23.576 585.515 23.512ZM587.339 63.448C589.387 63.448 591.307 62.392 593.099 60.28C594.891 58.104 595.787 55.064 595.787 51.16C595.787 48.536 595.339 46.328 594.443 44.536C593.611 42.68 592.555 41.304 591.275 40.408C589.995 39.448 588.747 38.968 587.531 38.968C586.315 38.968 585.067 39.064 583.786 39.256C582.571 39.448 581.483 40.184 580.523 41.464C579.627 42.744 579.051 45.016 578.795 48.28C578.475 52.504 578.731 55.704 579.562 57.88C580.458 60.056 581.642 61.528 583.115 62.296C584.587 63.064 585.995 63.448 587.339 63.448ZM644.74 23.224C649.476 23.224 653.508 23.896 656.836 25.24C660.228 26.584 662.82 28.248 664.612 30.232C666.404 32.216 667.268 34.168 667.204 36.088C667.204 37.112 666.756 38.264 665.86 39.544C664.964 40.824 663.78 41.912 662.308 42.808C660.9 43.64 659.332 43.96 657.604 43.768C658.052 42.616 657.764 41.528 656.74 40.504C655.716 39.48 654.244 38.648 652.324 38.008C650.404 37.304 648.324 36.92 646.084 36.856C643.524 36.728 641.796 37.016 640.9 37.72C640.004 38.36 639.492 39.064 639.364 39.832C639.172 40.664 639.556 41.4 640.516 42.04C641.476 42.616 642.724 43.16 644.26 43.672C645.86 44.12 647.524 44.536 649.252 44.92C651.044 45.24 652.676 45.528 654.148 45.784C655.684 46.04 656.868 46.296 657.7 46.552C661.54 47.704 664.356 49.208 666.148 51.064C667.94 52.856 669.092 54.776 669.604 56.824C670.18 58.872 670.404 60.888 670.276 62.872C670.148 66.072 669.316 68.76 667.78 70.936C666.308 73.048 664.452 74.744 662.212 76.024C660.036 77.304 657.732 78.264 655.3 78.904C652.932 79.48 650.692 79.864 648.58 80.056C646.532 80.248 644.964 80.344 643.876 80.344C640.548 80.28 637.412 79.928 634.468 79.288C631.588 78.712 629.092 77.944 626.98 76.984C624.932 76.024 623.46 75 622.564 73.912C621.924 73.144 621.316 72.056 620.74 70.648C620.164 69.24 619.812 67.736 619.684 66.136C619.62 64.472 619.972 62.904 620.74 61.432C621.508 59.896 622.916 58.648 624.964 57.688C625.348 58.968 626.372 60.12 628.036 61.144C629.764 62.168 631.812 63 634.18 63.64C636.612 64.28 639.012 64.728 641.38 64.984C643.684 65.176 645.86 65.144 647.908 64.888C649.956 64.632 651.076 63.896 651.268 62.68C651.396 62.04 651.076 61.4 650.308 60.76C649.54 60.12 648.132 59.576 646.084 59.128C643.908 58.616 641.988 58.232 640.324 57.976C638.724 57.656 637.124 57.304 635.524 56.92C632.516 56.152 629.892 54.936 627.652 53.272C625.412 51.608 623.716 49.624 622.564 47.32C621.476 44.952 621.092 42.456 621.412 39.832C621.924 36.056 623.3 32.952 625.54 30.52C627.844 28.088 630.692 26.264 634.084 25.048C637.476 23.832 641.028 23.224 644.74 23.224Z" fill="#8A229E"/>
</g>
<defs>
<filter id="filter0_d_1_2" x="0.840027" y="0.404004" width="677.328" height="98.312" filterUnits="userSpaceOnUse" color-interpolation-filters="sRGB">
<feFlood flood-opacity="0" result="BackgroundImageFix"/>
<feColorMatrix in="SourceAlpha" type="matrix" values="0 0 0 0 0 0 0 0 0 0 0 0 0 0 0 0 0 0 127 0" result="hardAlpha"/>
<feOffset dx="4" dy="2"/>
<feGaussianBlur stdDeviation="1.85"/>
<feComposite in2="hardAlpha" operator="out"/>
<feColorMatrix type="matrix" values="0 0 0 0 0 0 0 0 0 0 0 0 0 0 0 0 0 0 0.25 0"/>
<feBlend mode="normal" in2="BackgroundImageFix" result="effect1_dropShadow_1_2"/>
<feBlend mode="normal" in="SourceGraphic" in2="effect1_dropShadow_1_2" result="shape"/>
</filter>
</defs>
</svg>
